<svg width="95" height="81" viewBox="0 0 95 81" fill="none" xmlns="http://www.w3.org/2000/svg">
<path d="M75.0567 0C79.49 2.5645 83.3747 5.97708 86.4891 10.0429C89.6035 14.1087 91.8865 18.7482 93.2079 23.6963C94.5293 28.6445 94.8632 33.8044 94.1904 38.8816C93.5177 43.9588 91.8515 48.8537 89.287 53.287C86.7225 57.7202 83.3099 61.6049 79.2441 64.7193C75.1782 67.8337 70.5388 70.1168 65.5907 71.4382C60.6425 72.7596 55.4825 73.0934 50.4054 72.4207C45.3282 71.7479 40.4332 70.0817 36 67.5172L75.0567 0Z" fill="#066B5B"/>
<path d="M19.5 80.8086C15.0646 78.2478 11.177 74.8385 8.05922 70.7753C4.94142 66.7121 2.65445 62.0746 1.32889 57.1275C0.00333846 52.1805 -0.334845 47.0208 0.333652 41.943C1.00215 36.8653 2.66424 31.969 5.22501 27.5336C7.78579 23.0982 11.1951 19.2106 15.2583 16.0928C19.3215 12.975 23.959 10.688 28.9061 9.36246C33.8531 8.03691 39.0128 7.69872 44.0905 8.36722C49.1683 9.03572 54.0646 10.6978 58.5 13.2586L19.5 80.8086Z" fill="#066B5B"/>
</svg>
